<svg xmlns="http://www.w3.org/2000/svg" xmlns:xlink="http://www.w3.org/1999/xlink" width="40" zoomAndPan="magnify" viewBox="0 0 30 30.000001" height="40" preserveAspectRatio="xMidYMid meet" version="1.0"><defs><clipPath id="ea8968da06"><path d="M 0.484375 5.160156 L 29.515625 5.160156 L 29.515625 24 L 0.484375 24 Z M 0.484375 5.160156 " clip-rule="nonzero"/></clipPath></defs><g clip-path="url(#ea8968da06)"><path fill="#000000" d="M 25.320312 5.382812 C 25.195312 5.257812 25.046875 5.195312 24.867188 5.195312 C 24.691406 5.195312 24.542969 5.257812 24.417969 5.382812 L 15.011719 14.871094 L 5.601562 5.382812 C 5.476562 5.257812 5.328125 5.195312 5.152344 5.195312 C 4.976562 5.191406 4.824219 5.253906 4.699219 5.382812 L 0.957031 9.132812 C 0.832031 9.261719 0.769531 9.414062 0.769531 9.589844 C 0.769531 9.769531 0.832031 9.921875 0.957031 10.046875 L 10.816406 19.992188 L 14.558594 23.746094 C 14.683594 23.871094 14.835938 23.933594 15.011719 23.929688 C 15.1875 23.929688 15.335938 23.867188 15.460938 23.742188 L 29.042969 10.046875 C 29.167969 9.921875 29.230469 9.769531 29.230469 9.589844 C 29.230469 9.414062 29.167969 9.261719 29.042969 9.136719 Z M 25.320312 5.382812 " fill-opacity="1" fill-rule="nonzero"/></g></svg>