<svg xmlns="http://www.w3.org/2000/svg" xmlns:xlink="http://www.w3.org/1999/xlink" width="40" zoomAndPan="magnify" viewBox="0 0 30 30.000001" height="40" preserveAspectRatio="xMidYMid meet" version="1.0"><defs><clipPath id="a25ffbfcbe"><path d="M 0.484375 6.085938 L 20.082031 6.085938 L 20.082031 22.78125 L 0.484375 22.78125 Z M 0.484375 6.085938 " clip-rule="nonzero"/></clipPath><clipPath id="4dd6553675"><path d="M 19 6.085938 L 27 6.085938 L 27 19.878906 L 19 19.878906 Z M 19 6.085938 " clip-rule="nonzero"/></clipPath><clipPath id="36d05009ca"><path d="M 13.390625 6.085938 L 21 6.085938 L 21 19.878906 L 13.390625 19.878906 Z M 13.390625 6.085938 " clip-rule="nonzero"/></clipPath></defs><g clip-path="url(#a25ffbfcbe)"><path fill="#545454" d="M 20.042969 12.355469 L 14 6.355469 C 13.8125 6.167969 13.484375 6.308594 13.484375 6.566406 L 13.484375 9.578125 C 13.484375 9.714844 13.390625 9.832031 13.25 9.878906 C 12.199219 10.113281 11.195312 10.417969 10.195312 10.8125 C 8.234375 11.558594 6.4375 12.609375 5.011719 13.871094 C 3.566406 15.132812 2.492188 16.601562 1.746094 18.140625 C 1.019531 19.660156 0.578125 21.246094 0.484375 22.832031 L 0.742188 22.855469 C 1.394531 21.433594 2.351562 20.125 3.472656 19.03125 C 4.59375 17.933594 5.921875 17.023438 7.324219 16.414062 C 8.023438 16.089844 8.769531 15.855469 9.492188 15.691406 C 10.242188 15.503906 10.988281 15.386719 11.757812 15.339844 C 12.222656 15.292969 12.691406 15.292969 13.15625 15.292969 C 13.320312 15.292969 13.460938 15.433594 13.460938 15.597656 L 13.460938 18.609375 C 13.460938 18.890625 13.789062 19.03125 13.976562 18.820312 L 20.019531 12.820312 C 20.160156 12.65625 20.160156 12.46875 20.042969 12.355469 Z M 20.042969 12.355469 " fill-opacity="1" fill-rule="nonzero"/></g><g clip-path="url(#4dd6553675)"><path fill="#545454" d="M 20.167969 19.605469 C 20.011719 19.605469 19.855469 19.546875 19.738281 19.425781 C 19.5 19.1875 19.5 18.800781 19.738281 18.5625 L 25.410156 12.890625 L 19.738281 7.222656 C 19.5 6.984375 19.5 6.597656 19.738281 6.359375 C 19.976562 6.121094 20.363281 6.121094 20.601562 6.359375 L 26.703125 12.460938 C 26.941406 12.699219 26.941406 13.085938 26.703125 13.324219 L 20.601562 19.425781 C 20.480469 19.546875 20.324219 19.605469 20.167969 19.605469 Z M 20.167969 19.605469 " fill-opacity="1" fill-rule="nonzero"/></g><g clip-path="url(#36d05009ca)"><path fill="#545454" d="M 14.066406 19.605469 C 13.910156 19.605469 13.753906 19.546875 13.632812 19.425781 C 13.394531 19.1875 13.394531 18.800781 13.632812 18.5625 L 19.304688 12.890625 L 13.632812 7.222656 C 13.394531 6.984375 13.394531 6.597656 13.632812 6.359375 C 13.875 6.121094 14.257812 6.121094 14.496094 6.359375 L 20.601562 12.460938 C 20.839844 12.699219 20.839844 13.085938 20.601562 13.324219 L 14.496094 19.425781 C 14.378906 19.546875 14.222656 19.605469 14.066406 19.605469 Z M 14.066406 19.605469 " fill-opacity="1" fill-rule="nonzero"/></g></svg>