<svg xmlns="http://www.w3.org/2000/svg" xmlns:xlink="http://www.w3.org/1999/xlink" width="40" zoomAndPan="magnify" viewBox="0 0 30 30.000001" height="40" preserveAspectRatio="xMidYMid meet" version="1.0"><defs><clipPath id="280ea6196e"><path d="M 0.484375 4.117188 L 29.515625 4.117188 L 29.515625 25 L 0.484375 25 Z M 0.484375 4.117188 " clip-rule="nonzero"/></clipPath></defs><g clip-path="url(#280ea6196e)"><path fill="#545454" d="M 3.140625 19.136719 L 6.792969 19.136719 L 6.792969 20.480469 L 3.140625 20.480469 C 1.6875 20.480469 0.507812 19.300781 0.507812 17.847656 L 0.507812 16.144531 C 0.507812 14.101562 1.546875 12.238281 3.285156 11.160156 L 3.992188 12.304688 C 2.652344 13.132812 1.851562 14.570312 1.851562 16.144531 L 1.851562 17.847656 C 1.851562 18.558594 2.429688 19.136719 3.140625 19.136719 Z M 10.988281 12.554688 C 10.988281 10.34375 12.789062 8.546875 15 8.546875 C 17.210938 8.546875 19.007812 10.34375 19.007812 12.554688 C 19.007812 14.765625 17.210938 16.566406 15 16.566406 C 12.789062 16.566406 10.988281 14.765625 10.988281 12.554688 Z M 12.332031 12.554688 C 12.332031 14.023438 13.527344 15.222656 15 15.222656 C 16.46875 15.222656 17.667969 14.023438 17.667969 12.554688 C 17.667969 11.085938 16.46875 9.886719 15 9.886719 C 13.527344 9.886719 12.332031 11.085938 12.332031 12.554688 Z M 22.703125 12.136719 C 20.492188 12.136719 18.695312 10.339844 18.695312 8.125 C 18.695312 5.914062 20.492188 4.117188 22.703125 4.117188 C 24.914062 4.117188 26.714844 5.917969 26.714844 8.125 C 26.714844 10.335938 24.914062 12.136719 22.703125 12.136719 Z M 25.371094 8.125 C 25.371094 6.65625 24.175781 5.460938 22.703125 5.460938 C 21.234375 5.460938 20.039062 6.65625 20.039062 8.125 C 20.039062 9.597656 21.234375 10.792969 22.703125 10.792969 C 24.175781 10.792969 25.371094 9.597656 25.371094 8.125 Z M 7.296875 12.136719 C 5.085938 12.136719 3.285156 10.339844 3.285156 8.125 C 3.285156 5.914062 5.085938 4.117188 7.296875 4.117188 C 9.507812 4.117188 11.304688 5.917969 11.304688 8.125 C 11.304688 10.335938 9.507812 12.136719 7.296875 12.136719 Z M 9.960938 8.125 C 9.960938 6.65625 8.765625 5.460938 7.296875 5.460938 C 5.824219 5.460938 4.628906 6.65625 4.628906 8.125 C 4.628906 9.597656 5.824219 10.792969 7.296875 10.792969 C 8.765625 10.792969 9.960938 9.597656 9.960938 8.125 Z M 26.71875 11.160156 L 26.007812 12.300781 C 27.347656 13.132812 28.144531 14.570312 28.144531 16.144531 L 28.144531 17.847656 C 28.144531 18.558594 27.570312 19.136719 26.859375 19.136719 L 23.207031 19.136719 L 23.207031 20.480469 L 26.859375 20.480469 C 28.308594 20.480469 29.488281 19.300781 29.488281 17.847656 L 29.488281 16.144531 C 29.488281 14.101562 28.453125 12.238281 26.71875 11.160156 Z M 19.015625 15.589844 L 18.304688 16.730469 C 19.644531 17.5625 20.441406 19 20.441406 20.574219 L 20.441406 22.277344 C 20.441406 22.988281 19.863281 23.5625 19.15625 23.5625 L 10.84375 23.5625 C 10.132812 23.5625 9.554688 22.988281 9.554688 22.277344 L 9.554688 20.574219 C 9.554688 18.996094 10.355469 17.558594 11.695312 16.730469 L 10.988281 15.589844 C 9.25 16.664062 8.214844 18.527344 8.214844 20.574219 L 8.214844 22.277344 C 8.214844 23.726562 9.394531 24.90625 10.84375 24.90625 L 19.15625 24.90625 C 20.605469 24.90625 21.785156 23.726562 21.785156 22.277344 L 21.785156 20.574219 C 21.785156 18.53125 20.75 16.667969 19.015625 15.589844 Z M 19.015625 15.589844 " fill-opacity="1" fill-rule="nonzero"/></g></svg>