<svg xmlns="http://www.w3.org/2000/svg" xmlns:xlink="http://www.w3.org/1999/xlink" width="40" zoomAndPan="magnify" viewBox="0 0 30 30.000001" height="40" preserveAspectRatio="xMidYMid meet" version="1.0"><defs><clipPath id="dcf2fedfab"><path d="M 4.3125 0 L 25.359375 0 L 25.359375 29.03125 L 4.3125 29.03125 Z M 4.3125 0 " clip-rule="nonzero"/></clipPath></defs><g clip-path="url(#dcf2fedfab)"><path fill="#383838" d="M 15 18.332031 C 17.527344 18.332031 19.566406 16.28125 19.566406 13.753906 L 19.582031 4.589844 C 19.582031 2.054688 17.535156 0.0117188 15 0.0117188 C 12.472656 0.0117188 10.417969 2.054688 10.417969 4.589844 L 10.417969 13.753906 C 10.417969 16.28125 12.472656 18.332031 15 18.332031 Z M 23.09375 13.753906 C 23.09375 18.332031 19.222656 21.539062 15 21.539062 C 10.785156 21.539062 6.90625 18.332031 6.90625 13.753906 L 4.3125 13.753906 C 4.3125 18.96875 8.464844 23.273438 13.472656 24.015625 L 13.472656 29.023438 L 16.527344 29.023438 L 16.527344 24.015625 C 21.535156 23.273438 25.6875 18.96875 25.6875 13.753906 Z M 23.09375 13.753906 " fill-opacity="1" fill-rule="nonzero"/></g></svg>