<svg xmlns="http://www.w3.org/2000/svg" xmlns:xlink="http://www.w3.org/1999/xlink" width="40" zoomAndPan="magnify" viewBox="0 0 30 30.000001" height="40" preserveAspectRatio="xMidYMid meet" version="1.0"><defs><clipPath id="bd1879a26f"><path d="M 3.585938 0 L 26.085938 0 L 26.085938 29.03125 L 3.585938 29.03125 Z M 3.585938 0 " clip-rule="nonzero"/></clipPath></defs><g clip-path="url(#bd1879a26f)"><path fill="#000000" d="M 20.941406 12.796875 L 20.941406 9.988281 C 20.941406 8.660156 20.40625 7.453125 19.542969 6.578125 C 18.683594 5.703125 17.492188 5.160156 16.183594 5.160156 L 13.476562 5.160156 C 12.167969 5.160156 10.980469 5.703125 10.117188 6.578125 C 9.253906 7.453125 8.71875 8.660156 8.71875 9.988281 L 8.71875 12.796875 C 8.71875 14.800781 8.449219 16.347656 7.925781 17.695312 C 7.402344 19.054688 6.628906 20.183594 5.617188 21.347656 C 5.605469 21.359375 5.597656 21.371094 5.585938 21.382812 C 5.277344 21.753906 5.136719 22.125 5.136719 22.457031 C 5.136719 22.621094 5.167969 22.769531 5.230469 22.90625 C 5.296875 23.050781 5.398438 23.183594 5.527344 23.300781 C 5.855469 23.59375 6.371094 23.777344 7.035156 23.777344 L 22.625 23.777344 C 23.289062 23.777344 23.804688 23.59375 24.132812 23.300781 C 24.265625 23.183594 24.363281 23.050781 24.429688 22.90625 C 24.492188 22.769531 24.523438 22.621094 24.523438 22.457031 C 24.523438 22.113281 24.375 21.730469 24.042969 21.347656 C 23.03125 20.183594 22.257812 19.054688 21.734375 17.695312 C 21.210938 16.347656 20.941406 14.800781 20.941406 12.796875 Z M 19.175781 25.339844 C 19.015625 26.261719 18.578125 27.089844 17.949219 27.722656 C 17.152344 28.535156 16.050781 29.035156 14.832031 29.035156 C 13.613281 29.035156 12.507812 28.535156 11.710938 27.722656 C 11.082031 27.089844 10.644531 26.261719 10.484375 25.339844 L 7.035156 25.339844 C 5.980469 25.339844 5.113281 25.003906 4.515625 24.472656 C 4.226562 24.210938 3.996094 23.902344 3.839844 23.566406 C 3.679688 23.214844 3.59375 22.839844 3.59375 22.457031 C 3.59375 21.765625 3.855469 21.039062 4.421875 20.367188 C 4.4375 20.351562 4.449219 20.335938 4.460938 20.320312 C 5.363281 19.277344 6.046875 18.289062 6.496094 17.128906 C 6.949219 15.964844 7.179688 14.597656 7.179688 12.796875 L 7.179688 9.988281 C 7.179688 8.230469 7.886719 6.632812 9.027344 5.476562 C 9.890625 4.597656 11.007812 3.972656 12.25 3.722656 L 12.253906 2.722656 C 12.25 2.699219 12.25 2.679688 12.25 2.65625 L 12.253906 2.65625 L 12.253906 2.652344 C 12.257812 1.917969 12.554688 1.253906 13.03125 0.773438 C 13.492188 0.3125 14.117188 0.0195312 14.808594 0 C 14.835938 0 14.863281 -0.00390625 14.886719 -0.00390625 L 14.886719 0 L 15.007812 0 C 15.730469 0.00390625 16.386719 0.304688 16.859375 0.789062 C 17.332031 1.273438 17.625 1.941406 17.621094 2.675781 L 17.617188 3.769531 C 18.777344 4.042969 19.816406 4.648438 20.632812 5.476562 C 21.773438 6.632812 22.480469 8.230469 22.480469 9.988281 L 22.480469 12.796875 C 22.480469 14.597656 22.710938 15.964844 23.164062 17.128906 C 23.613281 18.289062 24.296875 19.277344 25.199219 20.320312 L 25.195312 20.320312 L 25.199219 20.320312 C 25.792969 21.007812 26.066406 21.75 26.066406 22.457031 C 26.066406 22.839844 25.980469 23.214844 25.820312 23.566406 C 25.664062 23.902344 25.433594 24.210938 25.144531 24.472656 C 24.546875 25.003906 23.679688 25.339844 22.625 25.339844 Z M 16.863281 26.621094 C 17.207031 26.269531 17.464844 25.832031 17.601562 25.339844 L 12.058594 25.339844 C 12.195312 25.832031 12.453125 26.269531 12.796875 26.621094 C 13.316406 27.148438 14.035156 27.472656 14.832031 27.472656 C 15.625 27.472656 16.34375 27.148438 16.863281 26.621094 Z M 16.085938 3.601562 L 16.089844 2.667969 C 16.089844 2.367188 15.96875 2.089844 15.769531 1.886719 C 15.574219 1.683594 15.300781 1.558594 15 1.554688 L 14.886719 1.554688 L 14.886719 1.558594 C 14.871094 1.558594 14.851562 1.558594 14.832031 1.554688 C 14.554688 1.570312 14.300781 1.6875 14.113281 1.878906 C 13.914062 2.078125 13.789062 2.355469 13.785156 2.65625 L 13.789062 2.65625 C 13.789062 2.679688 13.789062 2.703125 13.785156 2.730469 L 13.78125 3.601562 Z M 16.085938 3.601562 " fill-opacity="1" fill-rule="evenodd"/></g></svg>