<svg xmlns="http://www.w3.org/2000/svg" xmlns:xlink="http://www.w3.org/1999/xlink" width="40" zoomAndPan="magnify" viewBox="0 0 30 30.000001" height="40" preserveAspectRatio="xMidYMid meet" version="1.0"><defs><clipPath id="164ac77e10"><path d="M 0.484375 0 L 28.789062 0 L 28.789062 28.304688 L 0.484375 28.304688 Z M 0.484375 0 " clip-rule="nonzero"/></clipPath></defs><g clip-path="url(#164ac77e10)"><path fill="#383838" d="M 10.414062 19.863281 L 13.253906 19.863281 L 13.253906 8.511719 L 10.414062 8.511719 Z M 14.671875 0 C 6.832031 0 0.484375 6.347656 0.484375 14.1875 C 0.484375 22.027344 6.832031 28.375 14.671875 28.375 C 22.507812 28.375 28.859375 22.027344 28.859375 14.1875 C 28.859375 6.347656 22.507812 0 14.671875 0 Z M 14.671875 25.535156 C 8.414062 25.535156 3.320312 20.445312 3.320312 14.1875 C 3.320312 7.929688 8.414062 2.835938 14.671875 2.835938 C 20.925781 2.835938 26.019531 7.929688 26.019531 14.1875 C 26.019531 20.445312 20.925781 25.535156 14.671875 25.535156 Z M 16.089844 19.863281 L 18.925781 19.863281 L 18.925781 8.511719 L 16.089844 8.511719 Z M 16.089844 19.863281 " fill-opacity="1" fill-rule="nonzero"/></g></svg>