<svg xmlns="http://www.w3.org/2000/svg" xmlns:xlink="http://www.w3.org/1999/xlink" width="40" zoomAndPan="magnify" viewBox="0 0 30 30.000001" height="40" preserveAspectRatio="xMidYMid meet" version="1.0"><defs><clipPath id="686286cbf1"><path d="M 0.648438 0 L 29.515625 0 L 29.515625 29 L 0.648438 29 Z M 0.648438 0 " clip-rule="nonzero"/></clipPath></defs><g clip-path="url(#686286cbf1)"><path fill="#000000" d="M 0.871094 27.355469 L 3.289062 17.003906 C 3.386719 16.5625 3.765625 16.214844 4.246094 16.152344 L 17.773438 14.769531 C 18.15625 14.738281 18.15625 14.171875 17.773438 14.105469 L 4.246094 12.816406 C 3.765625 12.785156 3.386719 12.4375 3.289062 12 L 0.871094 1.675781 C 0.648438 0.792969 1.601562 0.0703125 2.429688 0.480469 L 28.882812 13.570312 C 29.679688 13.980469 29.679688 15.113281 28.882812 15.523438 L 2.429688 28.554688 C 1.601562 28.960938 0.648438 28.238281 0.871094 27.355469 Z M 0.871094 27.355469 " fill-opacity="1" fill-rule="nonzero"/></g></svg>