<svg xmlns="http://www.w3.org/2000/svg" xmlns:xlink="http://www.w3.org/1999/xlink" width="40" zoomAndPan="magnify" viewBox="0 0 30 30.000001" height="40" preserveAspectRatio="xMidYMid meet" version="1.0"><defs><clipPath id="d725c2616a"><path d="M 0.484375 0 L 29.515625 0 L 29.515625 29.03125 L 0.484375 29.03125 Z M 0.484375 0 " clip-rule="nonzero"/></clipPath></defs><g clip-path="url(#d725c2616a)"><path fill="#383838" d="M 28.253906 11.304688 L 25.96875 11.304688 C 25.738281 10.511719 25.425781 9.75 25.027344 9.023438 L 26.644531 7.410156 C 26.761719 7.292969 26.855469 7.15625 26.917969 7 C 26.984375 6.84375 27.015625 6.683594 27.015625 6.515625 C 27.015625 6.347656 26.984375 6.1875 26.917969 6.03125 C 26.855469 5.878906 26.761719 5.742188 26.644531 5.625 L 23.886719 2.871094 C 23.769531 2.753906 23.632812 2.660156 23.476562 2.597656 C 23.320312 2.535156 23.160156 2.5 22.992188 2.5 C 22.824219 2.5 22.664062 2.535156 22.511719 2.597656 C 22.355469 2.660156 22.21875 2.753906 22.101562 2.871094 L 20.492188 4.488281 C 19.765625 4.089844 19.007812 3.777344 18.210938 3.546875 L 18.210938 1.261719 C 18.210938 1.09375 18.179688 0.933594 18.117188 0.777344 C 18.050781 0.625 17.960938 0.488281 17.84375 0.371094 C 17.722656 0.25 17.589844 0.160156 17.433594 0.0976562 C 17.277344 0.03125 17.117188 0 16.949219 0 L 13.050781 0 C 12.882812 0 12.722656 0.03125 12.566406 0.0976562 C 12.410156 0.160156 12.277344 0.25 12.15625 0.371094 C 12.039062 0.488281 11.949219 0.625 11.882812 0.777344 C 11.820312 0.933594 11.789062 1.09375 11.789062 1.261719 L 11.789062 3.546875 C 10.992188 3.777344 10.234375 4.089844 9.507812 4.488281 L 7.898438 2.871094 C 7.78125 2.753906 7.644531 2.660156 7.488281 2.597656 C 7.335938 2.535156 7.175781 2.5 7.007812 2.5 C 6.839844 2.5 6.679688 2.535156 6.523438 2.597656 C 6.367188 2.660156 6.230469 2.753906 6.113281 2.871094 L 3.355469 5.628906 C 3.238281 5.75 3.144531 5.882812 3.082031 6.039062 C 3.015625 6.195312 2.984375 6.355469 2.984375 6.523438 C 2.984375 6.691406 3.015625 6.851562 3.082031 7.007812 C 3.144531 7.160156 3.238281 7.296875 3.355469 7.414062 L 4.972656 9.023438 C 4.574219 9.75 4.261719 10.511719 4.03125 11.304688 L 1.746094 11.304688 C 1.578125 11.304688 1.417969 11.335938 1.261719 11.398438 C 1.109375 11.464844 0.972656 11.554688 0.855469 11.671875 C 0.734375 11.792969 0.644531 11.929688 0.578125 12.082031 C 0.515625 12.238281 0.484375 12.398438 0.484375 12.566406 L 0.484375 16.460938 C 0.484375 16.628906 0.515625 16.789062 0.578125 16.941406 C 0.644531 17.097656 0.734375 17.234375 0.855469 17.351562 C 0.972656 17.472656 1.109375 17.5625 1.261719 17.625 C 1.417969 17.691406 1.578125 17.722656 1.746094 17.722656 L 4.03125 17.722656 C 4.261719 18.519531 4.574219 19.28125 4.972656 20.007812 L 3.355469 21.617188 C 3.238281 21.734375 3.144531 21.871094 3.082031 22.027344 C 3.015625 22.179688 2.984375 22.34375 2.984375 22.507812 C 2.984375 22.675781 3.015625 22.839844 3.082031 22.992188 C 3.144531 23.148438 3.238281 23.285156 3.355469 23.402344 L 6.113281 26.160156 C 6.230469 26.277344 6.367188 26.371094 6.523438 26.433594 C 6.679688 26.5 6.839844 26.53125 7.007812 26.53125 C 7.175781 26.53125 7.335938 26.5 7.488281 26.433594 C 7.644531 26.371094 7.78125 26.277344 7.898438 26.160156 L 9.515625 24.542969 C 10.242188 24.941406 11 25.253906 11.792969 25.484375 L 11.792969 27.769531 C 11.792969 27.9375 11.824219 28.097656 11.890625 28.253906 C 11.953125 28.40625 12.046875 28.542969 12.164062 28.664062 C 12.28125 28.78125 12.417969 28.871094 12.574219 28.9375 C 12.726562 29 12.890625 29.03125 13.054688 29.03125 L 16.949219 29.03125 C 17.117188 29.03125 17.277344 29 17.433594 28.9375 C 17.589844 28.871094 17.722656 28.78125 17.84375 28.664062 C 17.960938 28.542969 18.050781 28.40625 18.117188 28.253906 C 18.179688 28.097656 18.210938 27.9375 18.210938 27.769531 L 18.210938 25.484375 C 19.007812 25.253906 19.765625 24.941406 20.492188 24.542969 L 22.105469 26.160156 C 22.226562 26.277344 22.363281 26.371094 22.515625 26.433594 C 22.671875 26.5 22.832031 26.53125 23 26.53125 C 23.167969 26.53125 23.328125 26.5 23.484375 26.433594 C 23.636719 26.371094 23.773438 26.277344 23.894531 26.160156 L 26.652344 23.402344 C 26.769531 23.285156 26.859375 23.148438 26.925781 22.992188 C 26.988281 22.839844 27.019531 22.675781 27.019531 22.507812 C 27.019531 22.34375 26.988281 22.179688 26.925781 22.027344 C 26.859375 21.871094 26.769531 21.734375 26.652344 21.617188 L 25.027344 20.007812 C 25.425781 19.28125 25.738281 18.523438 25.96875 17.730469 L 28.253906 17.730469 C 28.421875 17.730469 28.582031 17.695312 28.738281 17.632812 C 28.890625 17.570312 29.027344 17.476562 29.144531 17.359375 C 29.265625 17.242188 29.355469 17.105469 29.421875 16.949219 C 29.484375 16.792969 29.515625 16.632812 29.515625 16.464844 L 29.515625 12.566406 C 29.515625 12.398438 29.484375 12.238281 29.421875 12.082031 C 29.355469 11.929688 29.265625 11.792969 29.144531 11.671875 C 29.027344 11.554688 28.890625 11.464844 28.738281 11.398438 C 28.582031 11.335938 28.421875 11.304688 28.253906 11.304688 Z M 26.992188 15.199219 L 25.914062 15.199219 C 25.644531 15.199219 25.386719 15.242188 25.136719 15.328125 C 24.882812 15.414062 24.652344 15.535156 24.4375 15.695312 C 24.226562 15.855469 24.046875 16.046875 23.894531 16.265625 C 23.742188 16.484375 23.632812 16.722656 23.558594 16.976562 C 23.371094 17.621094 23.117188 18.234375 22.792969 18.820312 C 22.664062 19.054688 22.578125 19.300781 22.53125 19.5625 C 22.480469 19.824219 22.476562 20.089844 22.511719 20.351562 C 22.550781 20.617188 22.628906 20.867188 22.746094 21.105469 C 22.863281 21.347656 23.015625 21.558594 23.203125 21.75 L 23.96875 22.511719 L 22.996094 23.476562 L 22.234375 22.722656 C 22.042969 22.535156 21.828125 22.382812 21.589844 22.265625 C 21.351562 22.144531 21.101562 22.070312 20.839844 22.03125 C 20.574219 21.996094 20.3125 22.003906 20.050781 22.050781 C 19.789062 22.101562 19.542969 22.1875 19.3125 22.316406 C 18.726562 22.640625 18.109375 22.894531 17.46875 23.082031 C 17.210938 23.15625 16.976562 23.265625 16.753906 23.417969 C 16.535156 23.566406 16.347656 23.75 16.1875 23.960938 C 16.027344 24.171875 15.902344 24.40625 15.816406 24.65625 C 15.730469 24.910156 15.6875 25.167969 15.6875 25.433594 L 15.6875 26.507812 L 14.3125 26.507812 L 14.3125 25.429688 C 14.3125 25.164062 14.269531 24.902344 14.183594 24.652344 C 14.097656 24.398438 13.972656 24.167969 13.8125 23.957031 C 13.652344 23.742188 13.464844 23.5625 13.246094 23.410156 C 13.023438 23.261719 12.789062 23.148438 12.53125 23.074219 C 11.890625 22.890625 11.273438 22.632812 10.6875 22.3125 C 10.457031 22.183594 10.210938 22.09375 9.949219 22.042969 C 9.6875 21.996094 9.425781 21.988281 9.160156 22.027344 C 8.898438 22.0625 8.648438 22.140625 8.410156 22.257812 C 8.171875 22.375 7.957031 22.527344 7.765625 22.714844 L 7.003906 23.476562 L 6.039062 22.511719 L 6.796875 21.75 C 6.980469 21.558594 7.132812 21.347656 7.253906 21.109375 C 7.371094 20.871094 7.445312 20.617188 7.484375 20.355469 C 7.519531 20.089844 7.515625 19.828125 7.464844 19.566406 C 7.417969 19.304688 7.328125 19.058594 7.199219 18.828125 C 6.875 18.242188 6.621094 17.625 6.433594 16.984375 C 6.363281 16.726562 6.25 16.492188 6.097656 16.273438 C 5.949219 16.050781 5.765625 15.863281 5.554688 15.703125 C 5.34375 15.542969 5.109375 15.417969 4.859375 15.332031 C 4.605469 15.25 4.347656 15.207031 4.082031 15.203125 L 3.007812 15.203125 L 3.007812 13.828125 L 4.085938 13.828125 C 4.355469 13.828125 4.613281 13.785156 4.863281 13.699219 C 5.117188 13.613281 5.347656 13.492188 5.5625 13.332031 C 5.773438 13.167969 5.953125 12.980469 6.105469 12.761719 C 6.257812 12.542969 6.367188 12.304688 6.441406 12.046875 C 6.628906 11.40625 6.882812 10.792969 7.207031 10.207031 C 7.332031 9.972656 7.421875 9.726562 7.46875 9.464844 C 7.515625 9.203125 7.523438 8.941406 7.484375 8.675781 C 7.449219 8.414062 7.371094 8.164062 7.253906 7.925781 C 7.136719 7.6875 6.980469 7.472656 6.796875 7.285156 L 6.039062 6.519531 L 7.011719 5.546875 L 7.765625 6.3125 C 7.957031 6.5 8.171875 6.652344 8.410156 6.769531 C 8.648438 6.886719 8.898438 6.964844 9.160156 7 C 9.425781 7.035156 9.6875 7.03125 9.949219 6.980469 C 10.210938 6.933594 10.457031 6.84375 10.6875 6.714844 C 11.273438 6.390625 11.890625 6.136719 12.53125 5.953125 C 12.789062 5.878906 13.023438 5.765625 13.246094 5.613281 C 13.464844 5.464844 13.652344 5.28125 13.8125 5.070312 C 13.972656 4.859375 14.097656 4.625 14.183594 4.375 C 14.269531 4.121094 14.3125 3.863281 14.3125 3.597656 L 14.3125 2.523438 L 15.679688 2.523438 L 15.679688 3.605469 C 15.683594 3.871094 15.726562 4.128906 15.8125 4.378906 C 15.894531 4.632812 16.019531 4.863281 16.179688 5.078125 C 16.339844 5.289062 16.53125 5.472656 16.75 5.621094 C 16.96875 5.773438 17.207031 5.882812 17.460938 5.957031 C 18.105469 6.144531 18.71875 6.398438 19.304688 6.722656 C 19.539062 6.851562 19.785156 6.9375 20.046875 6.988281 C 20.308594 7.035156 20.574219 7.039062 20.835938 7.003906 C 21.101562 6.964844 21.351562 6.890625 21.589844 6.769531 C 21.828125 6.652344 22.042969 6.5 22.234375 6.3125 L 22.996094 5.546875 L 23.96875 6.519531 L 23.203125 7.285156 C 23.019531 7.472656 22.867188 7.6875 22.746094 7.925781 C 22.628906 8.164062 22.554688 8.414062 22.515625 8.675781 C 22.480469 8.941406 22.484375 9.203125 22.535156 9.464844 C 22.582031 9.726562 22.671875 9.972656 22.800781 10.207031 C 23.125 10.789062 23.378906 11.40625 23.566406 12.046875 C 23.636719 12.304688 23.75 12.542969 23.902344 12.761719 C 24.050781 12.980469 24.234375 13.167969 24.445312 13.332031 C 24.65625 13.492188 24.890625 13.613281 25.140625 13.699219 C 25.394531 13.785156 25.652344 13.828125 25.917969 13.828125 L 26.992188 13.828125 Z M 26.992188 15.199219 " fill-opacity="1" fill-rule="nonzero"/></g><path fill="#383838" d="M 15 8.203125 C 14.585938 8.203125 14.175781 8.246094 13.769531 8.324219 C 13.363281 8.40625 12.96875 8.527344 12.585938 8.683594 C 12.203125 8.84375 11.839844 9.039062 11.492188 9.269531 C 11.148438 9.5 10.832031 9.761719 10.539062 10.054688 C 10.246094 10.347656 9.984375 10.664062 9.753906 11.007812 C 9.523438 11.355469 9.328125 11.71875 9.167969 12.101562 C 9.011719 12.484375 8.890625 12.878906 8.808594 13.285156 C 8.730469 13.691406 8.6875 14.101562 8.6875 14.515625 C 8.6875 14.929688 8.730469 15.339844 8.808594 15.746094 C 8.890625 16.152344 9.011719 16.546875 9.167969 16.929688 C 9.328125 17.3125 9.523438 17.679688 9.753906 18.023438 C 9.984375 18.367188 10.246094 18.6875 10.539062 18.980469 C 10.832031 19.273438 11.148438 19.535156 11.492188 19.765625 C 11.839844 19.992188 12.203125 20.1875 12.585938 20.347656 C 12.96875 20.503906 13.363281 20.625 13.769531 20.707031 C 14.175781 20.785156 14.585938 20.828125 15 20.828125 C 15.414062 20.828125 15.824219 20.785156 16.230469 20.707031 C 16.636719 20.625 17.03125 20.503906 17.414062 20.347656 C 17.796875 20.1875 18.160156 19.992188 18.507812 19.765625 C 18.851562 19.535156 19.167969 19.273438 19.460938 18.980469 C 19.753906 18.6875 20.015625 18.367188 20.246094 18.023438 C 20.476562 17.679688 20.671875 17.3125 20.832031 16.929688 C 20.988281 16.546875 21.109375 16.152344 21.191406 15.746094 C 21.269531 15.339844 21.3125 14.929688 21.3125 14.515625 C 21.3125 14.101562 21.269531 13.691406 21.191406 13.285156 C 21.109375 12.878906 20.988281 12.484375 20.832031 12.101562 C 20.671875 11.71875 20.476562 11.355469 20.246094 11.007812 C 20.015625 10.664062 19.753906 10.347656 19.460938 10.054688 C 19.167969 9.761719 18.851562 9.5 18.507812 9.269531 C 18.160156 9.039062 17.796875 8.84375 17.414062 8.683594 C 17.03125 8.527344 16.636719 8.40625 16.230469 8.324219 C 15.824219 8.246094 15.414062 8.203125 15 8.203125 Z M 15 18.304688 C 14.496094 18.304688 14.015625 18.207031 13.550781 18.015625 C 13.085938 17.824219 12.675781 17.550781 12.324219 17.195312 C 11.96875 16.839844 11.695312 16.429688 11.5 15.964844 C 11.308594 15.5 11.214844 15.019531 11.214844 14.515625 C 11.214844 14.015625 11.308594 13.53125 11.5 13.066406 C 11.695312 12.601562 11.96875 12.195312 12.324219 11.839844 C 12.675781 11.484375 13.085938 11.210938 13.550781 11.015625 C 14.015625 10.824219 14.496094 10.730469 15 10.730469 C 15.503906 10.730469 15.984375 10.824219 16.449219 11.015625 C 16.914062 11.210938 17.324219 11.484375 17.675781 11.839844 C 18.03125 12.195312 18.304688 12.601562 18.5 13.066406 C 18.691406 13.53125 18.785156 14.015625 18.785156 14.515625 C 18.785156 15.019531 18.691406 15.5 18.5 15.964844 C 18.304688 16.429688 18.03125 16.839844 17.675781 17.195312 C 17.324219 17.550781 16.914062 17.824219 16.449219 18.015625 C 15.984375 18.207031 15.503906 18.304688 15 18.304688 Z M 15 18.304688 " fill-opacity="1" fill-rule="nonzero"/></svg>