<svg xmlns="http://www.w3.org/2000/svg" xmlns:xlink="http://www.w3.org/1999/xlink" width="40" zoomAndPan="magnify" viewBox="0 0 30 30.000001" height="40" preserveAspectRatio="xMidYMid meet" version="1.0"><defs><clipPath id="17e0919e88"><path d="M 0.484375 0 L 29.515625 0 L 29.515625 29.03125 L 0.484375 29.03125 Z M 0.484375 0 " clip-rule="nonzero"/></clipPath></defs><g clip-path="url(#17e0919e88)"><path fill="#545454" d="M 15 0 C 6.992188 0 0.484375 6.507812 0.484375 14.515625 C 0.484375 22.527344 6.992188 29.03125 15 29.03125 C 23.007812 29.03125 29.515625 22.527344 29.515625 14.515625 C 29.515625 6.507812 23.007812 0 15 0 M 15 1.320312 C 22.296875 1.320312 28.195312 7.21875 28.195312 14.515625 C 28.195312 21.8125 22.296875 27.710938 15 27.710938 C 7.703125 27.710938 1.804688 21.8125 1.804688 14.515625 C 1.804688 7.21875 7.703125 1.320312 15 1.320312 M 10.214844 10.886719 C 9.933594 10.886719 9.660156 10.941406 9.394531 11.050781 C 9.132812 11.160156 8.902344 11.3125 8.699219 11.515625 C 8.5 11.714844 8.34375 11.949219 8.234375 12.210938 C 8.125 12.472656 8.070312 12.746094 8.070312 13.03125 C 8.070312 13.316406 8.125 13.589844 8.234375 13.851562 C 8.34375 14.113281 8.5 14.347656 8.699219 14.546875 C 8.902344 14.75 9.132812 14.902344 9.394531 15.011719 C 9.660156 15.121094 9.933594 15.175781 10.214844 15.175781 C 10.5 15.175781 10.773438 15.121094 11.035156 15.011719 C 11.300781 14.902344 11.53125 14.75 11.734375 14.546875 C 11.933594 14.347656 12.089844 14.113281 12.199219 13.851562 C 12.304688 13.589844 12.359375 13.316406 12.359375 13.03125 C 12.359375 12.746094 12.304688 12.472656 12.199219 12.210938 C 12.089844 11.949219 11.933594 11.714844 11.734375 11.515625 C 11.53125 11.3125 11.300781 11.160156 11.035156 11.050781 C 10.773438 10.941406 10.5 10.886719 10.214844 10.886719 M 19.785156 10.886719 C 19.5 10.886719 19.226562 10.941406 18.964844 11.050781 C 18.699219 11.160156 18.46875 11.3125 18.265625 11.515625 C 18.066406 11.714844 17.910156 11.949219 17.800781 12.210938 C 17.695312 12.472656 17.640625 12.746094 17.640625 13.03125 C 17.640625 13.316406 17.695312 13.589844 17.800781 13.851562 C 17.910156 14.113281 18.066406 14.347656 18.265625 14.546875 C 18.46875 14.75 18.699219 14.902344 18.964844 15.011719 C 19.226562 15.121094 19.5 15.175781 19.785156 15.175781 C 20.066406 15.175781 20.339844 15.121094 20.605469 15.011719 C 20.867188 14.902344 21.097656 14.75 21.300781 14.546875 C 21.5 14.347656 21.65625 14.113281 21.765625 13.851562 C 21.875 13.589844 21.929688 13.316406 21.929688 13.03125 C 21.929688 12.746094 21.875 12.472656 21.765625 12.210938 C 21.65625 11.949219 21.5 11.714844 21.300781 11.515625 C 21.097656 11.3125 20.867188 11.160156 20.605469 11.050781 C 20.339844 10.941406 20.066406 10.886719 19.785156 10.886719 M 10.191406 19.460938 L 9.0625 20.144531 C 9.0625 20.144531 11.183594 23.753906 15 23.753906 C 18.820312 23.753906 20.9375 20.144531 20.9375 20.144531 L 19.808594 19.460938 C 19.808594 19.460938 17.964844 22.433594 15 22.433594 C 12.035156 22.433594 10.191406 19.460938 10.191406 19.460938 " fill-opacity="1" fill-rule="nonzero"/></g></svg>