<svg xmlns="http://www.w3.org/2000/svg" xmlns:xlink="http://www.w3.org/1999/xlink" width="40" zoomAndPan="magnify" viewBox="0 0 30 30.000001" height="40" preserveAspectRatio="xMidYMid meet" version="1.0"><defs><clipPath id="c21bc3ad2f"><path d="M 0.484375 0 L 29.515625 0 L 29.515625 29 L 0.484375 29 Z M 0.484375 0 " clip-rule="nonzero"/></clipPath><clipPath id="681831125f"><path d="M 7.742188 7.257812 L 19 7.257812 L 19 20 L 7.742188 20 Z M 7.742188 7.257812 " clip-rule="nonzero"/></clipPath><clipPath id="e30dda0964"><path d="M 11 9 L 22.257812 9 L 22.257812 21.773438 L 11 21.773438 Z M 11 9 " clip-rule="nonzero"/></clipPath></defs><g clip-path="url(#c21bc3ad2f)"><path fill="#383838" d="M 2.855469 22.203125 C 1.429688 19.964844 0.605469 17.304688 0.605469 14.457031 C 0.605469 6.476562 7.082031 0 15.058594 0 C 23.039062 0 29.515625 6.476562 29.515625 14.457031 C 29.515625 17.363281 28.65625 20.074219 27.175781 22.34375 C 26.808594 22.898438 26.066406 23.054688 25.507812 22.691406 C 24.949219 22.328125 24.792969 21.582031 25.15625 21.023438 C 26.390625 19.136719 27.105469 16.878906 27.105469 14.457031 C 27.105469 7.808594 21.710938 2.410156 15.058594 2.410156 C 8.410156 2.410156 3.011719 7.808594 3.011719 14.457031 C 3.011719 17.035156 3.824219 19.421875 5.207031 21.382812 C 5.445312 21.726562 5.492188 22.167969 5.328125 22.550781 L 4.101562 25.414062 L 6.964844 24.1875 C 7.347656 24.023438 7.789062 24.070312 8.132812 24.308594 C 10.09375 25.691406 12.480469 26.503906 15.058594 26.503906 C 17.636719 26.503906 20.023438 25.691406 21.980469 24.3125 C 22.527344 23.929688 23.277344 24.058594 23.664062 24.605469 C 24.042969 25.148438 23.914062 25.898438 23.371094 26.285156 C 21.019531 27.941406 18.152344 28.910156 15.058594 28.910156 C 12.210938 28.910156 9.550781 28.085938 7.3125 26.660156 L 2.285156 28.8125 C 1.832031 29.007812 1.304688 28.90625 0.957031 28.558594 C 0.609375 28.210938 0.507812 27.6875 0.703125 27.230469 L 2.855469 22.203125 " fill-opacity="1" fill-rule="evenodd"/></g><path fill="#000000" d="M 11.503906 12.457031 L 11.503906 10.65625 L 13.304688 10.65625 L 13.304688 10.753906 L 12.273438 11.785156 L 11.976562 11.488281 C 11.933594 11.449219 11.871094 11.449219 11.832031 11.488281 C 11.792969 11.527344 11.792969 11.59375 11.832031 11.632812 L 12.199219 12 C 12.21875 12.019531 12.246094 12.03125 12.273438 12.03125 C 12.296875 12.03125 12.324219 12.019531 12.34375 12 L 13.304688 11.039062 L 13.304688 12.457031 Z M 11.503906 12.457031 " fill-opacity="1" fill-rule="nonzero"/><path fill="#000000" d="M 11.503906 15.417969 L 11.503906 13.617188 L 13.304688 13.617188 L 13.304688 13.710938 L 12.273438 14.746094 L 11.976562 14.449219 C 11.933594 14.40625 11.871094 14.40625 11.832031 14.449219 C 11.792969 14.488281 11.792969 14.550781 11.832031 14.589844 L 12.199219 14.957031 C 12.21875 14.976562 12.246094 14.988281 12.273438 14.988281 C 12.300781 14.988281 12.324219 14.976562 12.34375 14.957031 L 13.304688 13.996094 L 13.304688 15.417969 Z M 11.503906 15.417969 " fill-opacity="1" fill-rule="nonzero"/><path fill="#000000" d="M 18.59375 12.257812 L 14.042969 12.257812 C 13.988281 12.257812 13.941406 12.300781 13.941406 12.359375 C 13.941406 12.414062 13.988281 12.457031 14.042969 12.457031 L 18.59375 12.457031 C 18.652344 12.457031 18.695312 12.414062 18.695312 12.359375 C 18.695312 12.300781 18.652344 12.257812 18.59375 12.257812 Z M 18.59375 12.257812 " fill-opacity="1" fill-rule="nonzero"/><path fill="#000000" d="M 18.59375 15.214844 L 14.042969 15.214844 C 13.988281 15.214844 13.941406 15.261719 13.941406 15.316406 C 13.941406 15.371094 13.988281 15.417969 14.042969 15.417969 L 18.59375 15.417969 C 18.652344 15.417969 18.695312 15.371094 18.695312 15.316406 C 18.695312 15.261719 18.652344 15.214844 18.59375 15.214844 Z M 18.59375 15.214844 " fill-opacity="1" fill-rule="nonzero"/><path fill="#000000" d="M 11.503906 18.375 L 11.503906 16.574219 L 13.304688 16.574219 L 13.304688 16.667969 L 12.273438 17.703125 L 11.976562 17.40625 C 11.933594 17.367188 11.871094 17.367188 11.832031 17.40625 C 11.792969 17.445312 11.792969 17.507812 11.832031 17.546875 L 12.199219 17.917969 C 12.21875 17.9375 12.246094 17.945312 12.273438 17.945312 C 12.296875 17.945312 12.324219 17.9375 12.34375 17.917969 L 13.304688 16.953125 L 13.304688 18.375 Z M 11.503906 18.375 " fill-opacity="1" fill-rule="nonzero"/><path fill="#000000" d="M 18.59375 18.171875 L 14.042969 18.171875 C 13.988281 18.171875 13.941406 18.21875 13.941406 18.273438 C 13.941406 18.332031 13.988281 18.375 14.042969 18.375 L 18.59375 18.375 C 18.652344 18.375 18.695312 18.332031 18.695312 18.273438 C 18.695312 18.21875 18.652344 18.171875 18.59375 18.171875 Z M 18.59375 18.171875 " fill-opacity="1" fill-rule="nonzero"/><g clip-path="url(#681831125f)"><path fill="#000000" d="M 8.289062 14.515625 C 8.289062 15.691406 8.597656 16.847656 9.179688 17.859375 C 9.195312 17.886719 9.21875 17.902344 9.246094 17.910156 C 9.273438 17.914062 9.300781 17.910156 9.324219 17.894531 L 10.019531 17.433594 L 10.167969 19.875 L 7.980469 18.78125 L 8.699219 18.308594 C 8.746094 18.277344 8.757812 18.21875 8.730469 18.171875 C 8.085938 17.066406 7.742188 15.804688 7.742188 14.515625 C 7.742188 10.515625 11 7.261719 15 7.261719 C 16.394531 7.261719 17.746094 7.65625 18.914062 8.40625 L 18.613281 8.859375 C 17.535156 8.167969 16.289062 7.804688 15 7.804688 C 11.300781 7.804688 8.289062 10.816406 8.289062 14.515625 Z M 8.289062 14.515625 " fill-opacity="1" fill-rule="nonzero"/></g><g clip-path="url(#e30dda0964)"><path fill="#000000" d="M 22.257812 14.515625 C 22.257812 18.519531 19 21.773438 15 21.773438 C 13.605469 21.773438 12.253906 21.378906 11.085938 20.628906 L 11.386719 20.175781 C 12.464844 20.863281 13.710938 21.230469 15 21.230469 C 18.699219 21.230469 21.710938 18.21875 21.710938 14.515625 C 21.710938 13.34375 21.402344 12.1875 20.820312 11.171875 C 20.804688 11.148438 20.78125 11.128906 20.753906 11.125 C 20.726562 11.117188 20.699219 11.125 20.675781 11.140625 L 19.980469 11.597656 L 19.832031 9.160156 L 22.015625 10.25 L 21.300781 10.726562 C 21.253906 10.753906 21.242188 10.8125 21.265625 10.859375 C 21.914062 11.96875 22.257812 13.230469 22.257812 14.515625 Z M 22.257812 14.515625 " fill-opacity="1" fill-rule="nonzero"/></g></svg>