<svg xmlns="http://www.w3.org/2000/svg" xmlns:xlink="http://www.w3.org/1999/xlink" width="40" zoomAndPan="magnify" viewBox="0 0 30 30.000001" height="40" preserveAspectRatio="xMidYMid meet" version="1.0"><defs><clipPath id="c8a6150f96"><path d="M 9 4.292969 L 21 4.292969 L 21 20 L 9 20 Z M 9 4.292969 " clip-rule="nonzero"/></clipPath><clipPath id="dc49990044"><path d="M 6.097656 16 L 24 16 L 24 24.613281 L 6.097656 24.613281 Z M 6.097656 16 " clip-rule="nonzero"/></clipPath></defs><g clip-path="url(#c8a6150f96)"><path fill="#383838" d="M 15 19.417969 C 15.613281 19.417969 16.242188 18.992188 16.257812 18.179688 L 16.257812 8.800781 L 17.9375 10.480469 C 18.523438 11.046875 19.269531 10.902344 19.707031 10.464844 C 20.140625 10.03125 20.285156 9.285156 19.714844 8.695312 L 15.890625 4.871094 C 15.789062 4.769531 15.667969 4.6875 15.515625 4.617188 C 15.039062 4.40625 14.472656 4.507812 14.109375 4.867188 L 10.289062 8.6875 C 9.921875 9.03125 9.8125 9.570312 10.015625 10.0625 C 10.214844 10.542969 10.65625 10.84375 11.132812 10.84375 C 11.46875 10.847656 11.816406 10.722656 12.0625 10.476562 L 13.738281 8.800781 L 13.738281 18.179688 C 13.75 18.992188 14.382812 19.417969 15 19.417969 Z M 15 19.417969 " fill-opacity="1" fill-rule="nonzero"/></g><g clip-path="url(#dc49990044)"><path fill="#383838" d="M 6.085938 18.171875 L 6.085938 19.566406 C 6.085938 22.371094 8.367188 24.652344 11.171875 24.652344 L 18.824219 24.652344 C 21.628906 24.652344 23.910156 22.371094 23.910156 19.566406 L 23.910156 18.171875 C 23.910156 17.480469 23.34375 16.914062 22.652344 16.914062 C 21.957031 16.914062 21.390625 17.480469 21.390625 18.171875 L 21.390625 19.566406 C 21.390625 20.984375 20.238281 22.132812 18.824219 22.132812 L 11.171875 22.132812 C 9.757812 22.132812 8.605469 20.984375 8.605469 19.566406 L 8.605469 18.171875 C 8.605469 17.480469 8.039062 16.914062 7.347656 16.914062 C 6.652344 16.914062 6.085938 17.480469 6.085938 18.171875 Z M 6.085938 18.171875 " fill-opacity="1" fill-rule="nonzero"/></g></svg>