<svg xmlns="http://www.w3.org/2000/svg" xmlns:xlink="http://www.w3.org/1999/xlink" width="40" zoomAndPan="magnify" viewBox="0 0 30 30.000001" height="40" preserveAspectRatio="xMidYMid meet" version="1.0"><defs><clipPath id="a935c6997b"><path d="M 0.484375 1.960938 L 29.515625 1.960938 L 29.515625 27.363281 L 0.484375 27.363281 Z M 0.484375 1.960938 " clip-rule="nonzero"/></clipPath></defs><g clip-path="url(#a935c6997b)"><path fill="#000000" d="M 25.246094 1.964844 C 24.824219 1.964844 24.402344 2.128906 24.082031 2.453125 L 6.203125 20.542969 C 5.558594 21.195312 5.558594 22.253906 6.203125 22.902344 C 6.847656 23.554688 7.894531 23.554688 8.535156 22.902344 L 26.414062 4.816406 C 27.058594 4.164062 27.058594 3.105469 26.414062 2.453125 C 26.09375 2.128906 25.667969 1.964844 25.246094 1.964844 Z M 14.996094 2.078125 C 9.972656 2.078125 5.039062 3.816406 1.105469 6.976562 C 0.390625 7.550781 0.273438 8.597656 0.839844 9.320312 C 1.40625 10.042969 2.445312 10.164062 3.15625 9.589844 C 6.558594 6.859375 10.652344 5.417969 14.996094 5.417969 C 15.765625 5.417969 16.519531 5.480469 17.269531 5.570312 L 20.109375 2.695312 C 18.4375 2.300781 16.726562 2.078125 14.996094 2.078125 Z M 28.371094 6.59375 C 28.339844 6.628906 28.316406 6.671875 28.28125 6.703125 L 26.023438 8.988281 C 26.296875 9.1875 26.574219 9.378906 26.839844 9.589844 C 27.140625 9.835938 27.503906 9.953125 27.863281 9.953125 C 28.347656 9.953125 28.832031 9.738281 29.15625 9.320312 C 29.722656 8.597656 29.601562 7.550781 28.886719 6.976562 C 28.71875 6.839844 28.542969 6.722656 28.371094 6.59375 Z M 14.136719 8.738281 C 10.789062 8.921875 7.554688 10.171875 4.960938 12.335938 C 4.257812 12.921875 4.15625 13.976562 4.734375 14.6875 C 5.316406 15.398438 6.355469 15.5 7.058594 14.914062 C 7.863281 14.242188 8.753906 13.679688 9.691406 13.238281 Z M 23.695312 11.347656 L 21.300781 13.765625 C 21.875 14.105469 22.421875 14.484375 22.9375 14.914062 C 23.242188 15.167969 23.613281 15.292969 23.984375 15.292969 C 24.460938 15.292969 24.929688 15.085938 25.257812 14.6875 C 25.835938 13.972656 25.738281 12.921875 25.035156 12.335938 C 24.605469 11.976562 24.15625 11.65625 23.695312 11.347656 Z M 18.867188 16.230469 L 16.277344 18.851562 C 17.175781 19.042969 18.039062 19.429688 18.765625 20.039062 C 19.070312 20.296875 19.445312 20.425781 19.816406 20.425781 C 20.289062 20.425781 20.761719 20.21875 21.085938 19.824219 C 21.671875 19.113281 21.574219 18.0625 20.871094 17.472656 C 20.261719 16.960938 19.578125 16.5625 18.867188 16.230469 Z M 14.996094 22.042969 C 14.648438 22.042969 14.3125 22.109375 13.992188 22.246094 C 13.671875 22.378906 13.386719 22.570312 13.140625 22.820312 C 12.894531 23.070312 12.703125 23.359375 12.570312 23.683594 C 12.4375 24.007812 12.371094 24.347656 12.371094 24.699219 C 12.371094 25.054688 12.4375 25.390625 12.570312 25.71875 C 12.703125 26.042969 12.894531 26.332031 13.140625 26.578125 C 13.386719 26.828125 13.671875 27.019531 13.992188 27.15625 C 14.3125 27.289062 14.648438 27.359375 14.996094 27.359375 C 15.34375 27.359375 15.679688 27.289062 16 27.15625 C 16.324219 27.019531 16.609375 26.828125 16.855469 26.578125 C 17.101562 26.332031 17.289062 26.042969 17.421875 25.71875 C 17.558594 25.390625 17.625 25.054688 17.625 24.699219 C 17.625 24.347656 17.558594 24.007812 17.421875 23.683594 C 17.289062 23.359375 17.101562 23.070312 16.855469 22.820312 C 16.609375 22.570312 16.324219 22.378906 16 22.246094 C 15.679688 22.109375 15.34375 22.042969 14.996094 22.042969 Z M 14.996094 22.042969 " fill-opacity="1" fill-rule="nonzero"/></g></svg>