<svg xmlns="http://www.w3.org/2000/svg" xmlns:xlink="http://www.w3.org/1999/xlink" width="40" zoomAndPan="magnify" viewBox="0 0 30 30.000001" height="40" preserveAspectRatio="xMidYMid meet" version="1.0"><defs><clipPath id="4538add26d"><path d="M 3.386719 14 L 24 14 L 24 29.03125 L 3.386719 29.03125 Z M 3.386719 14 " clip-rule="nonzero"/></clipPath><clipPath id="dc3cfa509f"><path d="M 21 10 L 26.613281 10 L 26.613281 12 L 21 12 Z M 21 10 " clip-rule="nonzero"/></clipPath></defs><path fill="#545454" d="M 18.367188 4.957031 C 21.707031 10.785156 15.726562 16.769531 9.898438 13.425781 C 9.226562 13.042969 8.671875 12.488281 8.285156 11.816406 C 4.945312 5.988281 10.925781 0.0078125 16.757812 3.347656 C 17.425781 3.730469 17.980469 4.289062 18.367188 4.957031 " fill-opacity="1" fill-rule="nonzero"/><g clip-path="url(#4538add26d)"><path fill="#545454" d="M 19.257812 14.960938 C 18.484375 16.046875 15.894531 16.488281 13.328125 16.488281 C 10.757812 16.488281 8.167969 16.046875 7.394531 14.960938 C 4.972656 16.355469 3.386719 18.675781 3.386719 21.300781 C 3.386719 25.566406 7.566406 29.027344 12.722656 29.027344 C 12.925781 29.027344 13.726562 29.027344 13.929688 29.027344 C 19.085938 29.027344 23.265625 25.566406 23.265625 21.300781 C 23.265625 18.675781 21.679688 16.355469 19.257812 14.960938 " fill-opacity="1" fill-rule="nonzero"/></g><g clip-path="url(#dc3cfa509f)"><path fill="#545454" d="M 26.328125 11.691406 L 21.105469 11.691406 L 21.105469 10.394531 L 26.328125 10.394531 L 26.328125 11.691406 " fill-opacity="1" fill-rule="nonzero"/></g><path fill="#545454" d="M 24.363281 8.433594 L 24.363281 13.65625 L 23.066406 13.65625 L 23.066406 8.433594 L 24.363281 8.433594 " fill-opacity="1" fill-rule="nonzero"/></svg>