<svg xmlns="http://www.w3.org/2000/svg" xmlns:xlink="http://www.w3.org/1999/xlink" width="40" zoomAndPan="magnify" viewBox="0 0 30 30.000001" height="40" preserveAspectRatio="xMidYMid meet" version="1.0"><defs><clipPath id="57e7159876"><path d="M 16 16 L 26.902344 16 L 26.902344 28 L 16 28 Z M 16 16 " clip-rule="nonzero"/></clipPath><clipPath id="38ae80c56b"><path d="M 2.226562 0 L 23 0 L 23 29.03125 L 2.226562 29.03125 Z M 2.226562 0 " clip-rule="nonzero"/></clipPath></defs><g clip-path="url(#57e7159876)"><path fill="#000000" d="M 25.953125 21.035156 L 22.632812 21.035156 L 22.632812 17.75 C 22.632812 17.492188 22.539062 17.273438 22.355469 17.089844 C 22.167969 16.90625 21.945312 16.8125 21.683594 16.8125 C 21.421875 16.8125 21.195312 16.90625 21.011719 17.089844 C 20.828125 17.273438 20.734375 17.492188 20.734375 17.75 L 20.734375 21.035156 L 17.410156 21.035156 C 17.148438 21.035156 16.925781 21.125 16.742188 21.308594 C 16.554688 21.492188 16.460938 21.710938 16.460938 21.972656 C 16.460938 22.230469 16.554688 22.453125 16.742188 22.632812 C 16.925781 22.816406 17.148438 22.910156 17.410156 22.910156 L 20.734375 22.910156 L 20.734375 26.191406 C 20.734375 26.449219 20.828125 26.671875 21.011719 26.855469 C 21.195312 27.039062 21.421875 27.128906 21.683594 27.128906 C 21.945312 27.128906 22.167969 27.039062 22.355469 26.855469 C 22.539062 26.671875 22.632812 26.449219 22.632812 26.191406 L 22.632812 22.910156 L 25.953125 22.910156 C 26.214844 22.910156 26.441406 22.816406 26.625 22.632812 C 26.8125 22.453125 26.902344 22.230469 26.902344 21.972656 C 26.902344 21.710938 26.8125 21.492188 26.625 21.308594 C 26.441406 21.125 26.214844 21.035156 25.953125 21.035156 Z M 25.953125 21.035156 " fill-opacity="1" fill-rule="nonzero"/></g><g clip-path="url(#38ae80c56b)"><path fill="#000000" d="M 14.566406 27.128906 L 5.074219 27.128906 C 4.8125 27.128906 4.585938 27.039062 4.402344 26.855469 C 4.214844 26.671875 4.125 26.449219 4.125 26.191406 C 4.125 25.515625 4.191406 24.84375 4.328125 24.179688 C 4.460938 23.515625 4.660156 22.871094 4.921875 22.246094 C 5.183594 21.621094 5.507812 21.027344 5.886719 20.464844 C 6.269531 19.902344 6.699219 19.378906 7.1875 18.902344 C 7.671875 18.421875 8.199219 17.996094 8.765625 17.617188 C 9.335938 17.242188 9.9375 16.925781 10.570312 16.664062 C 11.203125 16.40625 11.855469 16.207031 12.527344 16.074219 C 13.199219 15.945312 13.878906 15.875 14.566406 15.875 C 14.867188 15.875 15.167969 15.859375 15.46875 15.824219 C 15.769531 15.789062 16.070312 15.738281 16.363281 15.667969 C 16.65625 15.597656 16.945312 15.511719 17.230469 15.410156 C 17.515625 15.304688 17.792969 15.183594 18.0625 15.046875 C 18.332031 14.910156 18.589844 14.761719 18.84375 14.59375 C 19.09375 14.425781 19.332031 14.246094 19.5625 14.050781 C 19.792969 13.851562 20.007812 13.644531 20.214844 13.425781 C 20.417969 13.203125 20.609375 12.972656 20.785156 12.726562 C 20.960938 12.484375 21.121094 12.230469 21.265625 11.96875 C 21.410156 11.707031 21.542969 11.4375 21.65625 11.160156 C 21.765625 10.882812 21.863281 10.597656 21.941406 10.308594 C 22.019531 10.019531 22.082031 9.726562 22.125 9.429688 C 22.167969 9.136719 22.195312 8.835938 22.203125 8.539062 C 22.210938 8.238281 22.199219 7.941406 22.171875 7.644531 C 22.144531 7.34375 22.097656 7.050781 22.03125 6.757812 C 21.96875 6.464844 21.886719 6.175781 21.789062 5.894531 C 21.6875 5.613281 21.574219 5.335938 21.441406 5.066406 C 21.308594 4.796875 21.160156 4.535156 20.996094 4.285156 C 20.835938 4.03125 20.65625 3.792969 20.464844 3.5625 C 20.269531 3.332031 20.066406 3.113281 19.847656 2.90625 C 19.625 2.699219 19.394531 2.503906 19.152344 2.324219 C 18.910156 2.148438 18.660156 1.980469 18.394531 1.832031 C 18.132812 1.683594 17.863281 1.550781 17.585938 1.429688 C 17.308594 1.3125 17.023438 1.210938 16.730469 1.128906 C 16.441406 1.042969 16.148438 0.976562 15.847656 0.929688 C 15.550781 0.878906 15.25 0.847656 14.945312 0.832031 C 14.644531 0.820312 14.339844 0.824219 14.039062 0.84375 C 13.738281 0.867188 13.4375 0.90625 13.140625 0.960938 C 12.84375 1.019531 12.550781 1.09375 12.261719 1.183594 C 11.972656 1.277344 11.691406 1.382812 11.417969 1.507812 C 11.140625 1.632812 10.875 1.773438 10.617188 1.929688 C 10.355469 2.085938 10.109375 2.253906 9.871094 2.441406 C 9.632812 2.625 9.40625 2.824219 9.195312 3.035156 C 8.980469 3.25 8.78125 3.472656 8.59375 3.707031 C 8.40625 3.945312 8.234375 4.1875 8.078125 4.445312 C 7.917969 4.699219 7.777344 4.964844 7.652344 5.238281 C 7.527344 5.511719 7.417969 5.789062 7.328125 6.074219 C 7.238281 6.359375 7.164062 6.648438 7.105469 6.941406 C 7.050781 7.238281 7.011719 7.53125 6.988281 7.832031 C 6.96875 8.128906 6.964844 8.429688 6.980469 8.726562 C 6.996094 9.027344 7.027344 9.324219 7.082031 9.617188 C 7.132812 9.914062 7.199219 10.203125 7.285156 10.492188 C 7.371094 10.777344 7.476562 11.058594 7.59375 11.332031 C 7.714844 11.609375 7.851562 11.875 8.003906 12.132812 C 8.15625 12.390625 8.324219 12.640625 8.503906 12.878906 C 8.6875 13.117188 8.882812 13.347656 9.09375 13.5625 C 9.304688 13.777344 9.523438 13.980469 9.757812 14.171875 C 9.992188 14.359375 10.238281 14.535156 10.492188 14.695312 C 9.894531 14.902344 9.3125 15.15625 8.753906 15.453125 C 8.195312 15.746094 7.660156 16.082031 7.152344 16.460938 C 6.644531 16.839844 6.167969 17.253906 5.726562 17.703125 C 5.28125 18.152344 4.875 18.632812 4.507812 19.144531 C 4.140625 19.65625 3.816406 20.191406 3.53125 20.753906 C 3.246094 21.316406 3.007812 21.894531 2.8125 22.492188 C 2.621094 23.089844 2.472656 23.699219 2.375 24.320312 C 2.277344 24.941406 2.226562 25.5625 2.226562 26.191406 C 2.226562 26.566406 2.296875 26.921875 2.441406 27.269531 C 2.585938 27.613281 2.792969 27.917969 3.058594 28.179688 C 3.328125 28.445312 3.632812 28.648438 3.984375 28.789062 C 4.332031 28.933594 4.695312 29.003906 5.074219 29.003906 L 14.566406 29.003906 C 14.828125 29.003906 15.050781 28.914062 15.234375 28.730469 C 15.421875 28.546875 15.511719 28.324219 15.511719 28.066406 C 15.511719 27.808594 15.421875 27.585938 15.234375 27.402344 C 15.050781 27.222656 14.828125 27.128906 14.566406 27.128906 Z M 8.871094 8.375 C 8.871094 8.003906 8.90625 7.636719 8.980469 7.277344 C 9.050781 6.914062 9.160156 6.5625 9.304688 6.21875 C 9.445312 5.878906 9.621094 5.554688 9.828125 5.246094 C 10.039062 4.941406 10.273438 4.65625 10.539062 4.394531 C 10.800781 4.132812 11.089844 3.902344 11.402344 3.695312 C 11.710938 3.488281 12.039062 3.316406 12.386719 3.175781 C 12.730469 3.035156 13.085938 2.925781 13.453125 2.855469 C 13.820312 2.78125 14.191406 2.746094 14.566406 2.746094 C 14.9375 2.746094 15.308594 2.78125 15.675781 2.855469 C 16.042969 2.925781 16.398438 3.035156 16.742188 3.175781 C 17.089844 3.316406 17.417969 3.488281 17.726562 3.695312 C 18.039062 3.902344 18.328125 4.132812 18.589844 4.394531 C 18.855469 4.65625 19.09375 4.941406 19.300781 5.246094 C 19.507812 5.554688 19.683594 5.878906 19.824219 6.21875 C 19.96875 6.5625 20.078125 6.914062 20.148438 7.277344 C 20.222656 7.636719 20.257812 8.003906 20.257812 8.375 C 20.257812 8.742188 20.222656 9.109375 20.148438 9.472656 C 20.078125 9.832031 19.96875 10.183594 19.824219 10.527344 C 19.683594 10.867188 19.507812 11.191406 19.300781 11.5 C 19.09375 11.808594 18.855469 12.089844 18.589844 12.351562 C 18.328125 12.613281 18.039062 12.847656 17.726562 13.050781 C 17.417969 13.257812 17.089844 13.429688 16.742188 13.570312 C 16.398438 13.714844 16.042969 13.820312 15.675781 13.890625 C 15.308594 13.964844 14.9375 14 14.566406 14 C 14.191406 14 13.820312 13.964844 13.453125 13.890625 C 13.085938 13.820312 12.730469 13.710938 12.386719 13.570312 C 12.039062 13.429688 11.710938 13.253906 11.402344 13.050781 C 11.089844 12.84375 10.804688 12.613281 10.539062 12.351562 C 10.273438 12.089844 10.039062 11.804688 9.832031 11.5 C 9.625 11.191406 9.449219 10.867188 9.304688 10.527344 C 9.160156 10.183594 9.054688 9.832031 8.980469 9.472656 C 8.90625 9.109375 8.871094 8.742188 8.871094 8.375 Z M 8.871094 8.375 " fill-opacity="1" fill-rule="nonzero"/></g></svg>