<svg xmlns="http://www.w3.org/2000/svg" xmlns:xlink="http://www.w3.org/1999/xlink" width="40" zoomAndPan="magnify" viewBox="0 0 30 30.000001" height="40" preserveAspectRatio="xMidYMid meet" version="1.0"><defs><clipPath id="98774baeb6"><path d="M 2.199219 0 L 27.601562 0 L 27.601562 29.03125 L 2.199219 29.03125 Z M 2.199219 0 " clip-rule="nonzero"/></clipPath></defs><g clip-path="url(#98774baeb6)"><path fill="#383838" d="M 23.53125 0.0117188 L 9.878906 0.0117188 C 7.792969 0.0117188 6.054688 1.515625 5.683594 3.496094 C 3.703125 3.863281 2.199219 5.605469 2.199219 7.691406 C 2.199219 9.050781 2.199219 23.964844 2.199219 24.753906 C 2.199219 27.105469 4.113281 29.019531 6.464844 29.019531 L 20.117188 29.019531 C 22.203125 29.019531 23.941406 27.515625 24.308594 25.535156 C 26.289062 25.167969 27.796875 23.425781 27.796875 21.339844 L 27.796875 4.277344 C 27.796875 1.925781 25.882812 0.0117188 23.53125 0.0117188 Z M 22.675781 24.753906 C 22.675781 26.164062 21.527344 27.3125 20.117188 27.3125 L 6.464844 27.3125 C 5.054688 27.3125 3.90625 26.164062 3.90625 24.753906 L 3.90625 22.546875 L 9.023438 17.429688 L 15.246094 23.652344 C 15.582031 23.984375 16.121094 23.984375 16.453125 23.652344 C 16.789062 23.316406 16.789062 22.777344 16.453125 22.445312 L 13.644531 19.636719 L 17.558594 15.722656 L 22.675781 20.84375 Z M 22.675781 18.429688 L 18.160156 13.914062 C 17.828125 13.578125 17.285156 13.578125 16.953125 13.914062 L 12.4375 18.429688 L 9.628906 15.621094 C 9.296875 15.285156 8.753906 15.285156 8.421875 15.621094 L 3.90625 20.136719 L 3.90625 7.691406 C 3.90625 6.277344 5.054688 5.132812 6.464844 5.132812 L 20.117188 5.132812 C 21.527344 5.132812 22.675781 6.277344 22.675781 7.691406 Z M 22.675781 18.429688 " fill-opacity="1" fill-rule="nonzero"/></g><path fill="#383838" d="M 14.996094 11.957031 C 14.996094 12.296875 14.933594 12.621094 14.800781 12.9375 C 14.671875 13.25 14.488281 13.527344 14.246094 13.765625 C 14.007812 14.007812 13.730469 14.191406 13.417969 14.320312 C 13.105469 14.453125 12.777344 14.515625 12.4375 14.515625 C 12.097656 14.515625 11.773438 14.453125 11.457031 14.320312 C 11.144531 14.191406 10.867188 14.007812 10.628906 13.765625 C 10.386719 13.527344 10.203125 13.25 10.074219 12.9375 C 9.941406 12.621094 9.878906 12.296875 9.878906 11.957031 C 9.878906 11.617188 9.941406 11.289062 10.074219 10.976562 C 10.203125 10.664062 10.386719 10.386719 10.628906 10.148438 C 10.867188 9.90625 11.144531 9.722656 11.457031 9.589844 C 11.773438 9.460938 12.097656 9.398438 12.4375 9.398438 C 12.777344 9.398438 13.105469 9.460938 13.417969 9.589844 C 13.730469 9.722656 14.007812 9.90625 14.246094 10.148438 C 14.488281 10.386719 14.671875 10.664062 14.800781 10.976562 C 14.933594 11.289062 14.996094 11.617188 14.996094 11.957031 Z M 14.996094 11.957031 " fill-opacity="1" fill-rule="nonzero"/></svg>