<svg xmlns="http://www.w3.org/2000/svg" xmlns:xlink="http://www.w3.org/1999/xlink" width="40" zoomAndPan="magnify" viewBox="0 0 30 30.000001" height="40" preserveAspectRatio="xMidYMid meet" version="1.0"><defs><clipPath id="d967c892d6"><path d="M 0.484375 3.300781 L 29.515625 3.300781 L 29.515625 25.800781 L 0.484375 25.800781 Z M 0.484375 3.300781 " clip-rule="nonzero"/></clipPath></defs><g clip-path="url(#d967c892d6)"><path fill="#000000" d="M 2.472656 3.300781 C 1.386719 3.300781 0.492188 4.199219 0.492188 5.289062 L 0.492188 23.816406 C 0.492188 24.015625 0.53125 24.203125 0.589844 24.386719 L 3.859375 12.703125 C 4.097656 11.851562 4.878906 11.253906 5.761719 11.253906 L 26.734375 11.253906 L 26.867188 7.933594 C 26.867188 6.84375 25.976562 5.949219 24.890625 5.949219 L 11.871094 5.949219 C 11.695312 5.949219 11.527344 5.882812 11.402344 5.757812 L 11.402344 5.753906 L 9.519531 3.878906 L 9.519531 3.882812 C 9.148438 3.507812 8.648438 3.300781 8.125 3.300781 Z M 5.761719 12.578125 C 5.46875 12.578125 5.207031 12.773438 5.128906 13.058594 L 1.796875 24.960938 C 1.742188 25.160156 1.78125 25.375 1.90625 25.539062 C 2.03125 25.703125 2.226562 25.800781 2.433594 25.800781 L 24.386719 25.800781 C 25.359375 25.800781 26.195312 25.121094 26.402344 24.179688 L 29.476562 13.421875 C 29.535156 13.222656 29.492188 13.003906 29.367188 12.839844 C 29.242188 12.675781 29.050781 12.578125 28.84375 12.578125 Z M 5.761719 12.578125 " fill-opacity="1" fill-rule="nonzero"/></g></svg>