<svg xmlns="http://www.w3.org/2000/svg" xmlns:xlink="http://www.w3.org/1999/xlink" width="40" zoomAndPan="magnify" viewBox="0 0 30 30.000001" height="40" preserveAspectRatio="xMidYMid meet" version="1.0"><defs><clipPath id="a409366f23"><path d="M 0.484375 2 L 29.515625 2 L 29.515625 27 L 0.484375 27 Z M 0.484375 2 " clip-rule="nonzero"/></clipPath></defs><g clip-path="url(#a409366f23)"><path fill="#545454" d="M 7.125 14.640625 C 7.125 14.617188 7.121094 14.597656 7.121094 14.574219 C 6.894531 8.726562 11.894531 4.378906 17.03125 4.378906 C 22.171875 4.378906 27.074219 8.425781 27.074219 14.574219 C 27.074219 17.421875 25.753906 20.09375 24.011719 21.804688 C 21.988281 23.792969 19.371094 24.59375 17.164062 24.59375 C 13.058594 24.59375 10.214844 21.691406 10.214844 21.691406 L 8.386719 23.410156 C 8.386719 23.410156 10.234375 25.050781 11.753906 25.753906 C 13.269531 26.457031 13.714844 26.878906 17.03125 26.953125 C 19.882812 27.019531 22.539062 25.746094 24.269531 24.59375 C 29.136719 21.355469 29.515625 16.726562 29.515625 14.609375 C 29.515625 12.488281 29.09375 8.328125 25.039062 4.886719 C 23.144531 3.277344 20.679688 2.003906 16.796875 2.003906 C 13.179688 2.003906 10.425781 3.667969 8.632812 5.234375 C 4.386719 8.933594 4.558594 14.609375 4.558594 14.609375 C 4.558594 14.609375 4.566406 14.621094 4.574219 14.640625 L 0.480469 14.640625 L 5.996094 20.332031 L 11.691406 14.640625 Z M 7.125 14.640625 " fill-opacity="1" fill-rule="evenodd"/></g><path fill="#545454" d="M 15.90625 9.339844 L 15.90625 15.988281 L 21.816406 19.578125 L 22.820312 18.179688 L 17.851562 15.171875 L 17.851562 9.339844 Z M 15.90625 9.339844 " fill-opacity="1" fill-rule="evenodd"/></svg>