<svg xmlns="http://www.w3.org/2000/svg" xmlns:xlink="http://www.w3.org/1999/xlink" width="40" zoomAndPan="magnify" viewBox="0 0 30 30.000001" height="40" preserveAspectRatio="xMidYMid meet" version="1.0"><defs><clipPath id="771dac3375"><path d="M 5.664062 5.367188 L 24.535156 5.367188 L 24.535156 23.511719 L 5.664062 23.511719 Z M 5.664062 5.367188 " clip-rule="nonzero"/></clipPath></defs><g clip-path="url(#771dac3375)"><path fill="#545454" d="M 21.089844 17.265625 C 20.179688 17.265625 19.363281 17.648438 18.785156 18.257812 L 12.011719 14.941406 C 12.035156 14.785156 12.050781 14.628906 12.050781 14.464844 C 12.050781 14.308594 12.035156 14.152344 12.011719 14.003906 L 18.777344 10.722656 C 19.355469 11.335938 20.175781 11.722656 21.089844 11.722656 C 22.847656 11.722656 24.269531 10.296875 24.269531 8.539062 C 24.269531 6.78125 22.847656 5.359375 21.089844 5.359375 C 19.332031 5.359375 17.90625 6.78125 17.90625 8.539062 C 17.90625 8.699219 17.921875 8.851562 17.945312 9.003906 L 11.179688 12.285156 C 10.601562 11.667969 9.78125 11.285156 8.867188 11.285156 C 7.109375 11.285156 5.6875 12.707031 5.6875 14.464844 C 5.6875 16.222656 7.109375 17.648438 8.867188 17.648438 C 9.777344 17.648438 10.59375 17.265625 11.171875 16.65625 L 17.945312 19.972656 C 17.921875 20.128906 17.90625 20.285156 17.90625 20.449219 C 17.90625 22.207031 19.332031 23.632812 21.089844 23.632812 C 22.847656 23.632812 24.269531 22.207031 24.269531 20.449219 C 24.269531 18.691406 22.847656 17.265625 21.089844 17.265625 Z M 21.089844 17.265625 " fill-opacity="1" fill-rule="nonzero"/></g></svg>