<svg xmlns="http://www.w3.org/2000/svg" xmlns:xlink="http://www.w3.org/1999/xlink" width="40" zoomAndPan="magnify" viewBox="0 0 30 30.000001" height="40" preserveAspectRatio="xMidYMid meet" version="1.0"><defs><clipPath id="45ac91733a"><path d="M 0.738281 13 L 17 13 L 17 29.03125 L 0.738281 29.03125 Z M 0.738281 13 " clip-rule="nonzero"/></clipPath></defs><path fill="#000000" d="M 25.246094 16.78125 C 25.210938 16.726562 25.160156 16.699219 25.097656 16.699219 C 25.035156 16.699219 24.984375 16.726562 24.949219 16.78125 L 21.761719 21.613281 C 21.726562 21.671875 21.726562 21.730469 21.757812 21.789062 C 21.792969 21.847656 21.84375 21.878906 21.914062 21.875 L 23.597656 21.875 C 23.652344 21.875 23.699219 21.894531 23.734375 21.933594 C 23.769531 21.976562 23.78125 22.023438 23.773438 22.074219 C 23.457031 23.65625 22.71875 25 21.550781 26.105469 C 20.3125 27.265625 18.855469 27.964844 17.179688 28.207031 C 18.078125 28.46875 18.996094 28.5625 19.925781 28.488281 C 20.859375 28.414062 21.75 28.179688 22.597656 27.78125 C 25.808594 26.1875 26.40625 22.804688 26.5 22.027344 C 26.515625 21.925781 26.574219 21.875 26.675781 21.875 L 28.28125 21.875 C 28.351562 21.878906 28.402344 21.847656 28.4375 21.789062 C 28.46875 21.730469 28.46875 21.671875 28.433594 21.613281 Z M 25.246094 16.78125 " fill-opacity="1" fill-rule="nonzero"/><path fill="#000000" d="M 4.5 13.023438 C 4.535156 13.078125 4.582031 13.105469 4.648438 13.105469 C 4.714844 13.105469 4.761719 13.078125 4.796875 13.023438 L 7.984375 7.976562 C 8.019531 7.917969 8.023438 7.855469 7.988281 7.796875 C 7.957031 7.734375 7.902344 7.703125 7.832031 7.703125 L 6.148438 7.703125 C 6.09375 7.703125 6.046875 7.679688 6.011719 7.636719 C 5.976562 7.59375 5.964844 7.546875 5.972656 7.492188 C 6.125 6.679688 6.394531 5.910156 6.78125 5.179688 C 7.171875 4.453125 7.660156 3.800781 8.253906 3.226562 C 8.84375 2.652344 9.507812 2.183594 10.242188 1.816406 C 10.980469 1.453125 11.753906 1.210938 12.566406 1.085938 C 7.582031 -0.390625 3.695312 3.265625 3.246094 7.542969 C 3.234375 7.648438 3.175781 7.703125 3.070312 7.703125 L 1.464844 7.703125 C 1.394531 7.703125 1.34375 7.734375 1.308594 7.796875 C 1.273438 7.855469 1.277344 7.917969 1.3125 7.976562 Z M 4.5 13.023438 " fill-opacity="1" fill-rule="nonzero"/><path fill="#000000" d="M 26.828125 13.226562 C 33.429688 5.695312 23.574219 -4.429688 16.003906 2.09375 C 10.800781 6.949219 14.300781 15.621094 21.453125 15.609375 L 27.449219 15.609375 C 27.6875 15.609375 28.414062 15.609375 28.589844 15.070312 C 28.679688 14.78125 28.601562 14.546875 28.355469 14.371094 Z M 19.09375 10.542969 C 18.792969 11.222656 18.816406 11.597656 18.140625 11.632812 C 17.925781 11.628906 17.738281 11.554688 17.582031 11.40625 C 17.425781 11.253906 17.339844 11.074219 17.324219 10.855469 C 17.351562 10.546875 17.433594 10.253906 17.570312 9.976562 L 19.734375 4.449219 C 19.941406 3.957031 20.105469 3.242188 20.617188 2.964844 C 20.792969 2.878906 20.972656 2.832031 21.164062 2.828125 C 21.359375 2.824219 21.542969 2.863281 21.71875 2.941406 C 21.894531 3.019531 22.042969 3.132812 22.171875 3.277344 C 22.296875 3.421875 22.386719 3.589844 22.4375 3.777344 C 22.480469 3.976562 24.773438 9.558594 24.90625 9.929688 C 25.042969 10.21875 25.128906 10.519531 25.164062 10.839844 C 25.140625 11.203125 24.957031 11.445312 24.621094 11.570312 C 24.28125 11.691406 23.988281 11.625 23.738281 11.363281 C 23.417969 10.746094 23.148438 10.109375 22.933594 9.453125 L 19.5 9.453125 Z M 19.09375 10.542969 " fill-opacity="1" fill-rule="nonzero"/><path fill="#000000" d="M 19.945312 8.15625 L 22.46875 8.15625 L 21.195312 4.644531 Z M 19.945312 8.15625 " fill-opacity="1" fill-rule="nonzero"/><g clip-path="url(#45ac91733a)"><path fill="#000000" d="M 7.339844 13.539062 C 1.222656 14.4375 -1.398438 22.144531 2.910156 26.613281 L 3.277344 26.261719 L 2.902344 26.675781 L 1.390625 27.792969 C 1.28125 27.871094 1.203125 27.976562 1.160156 28.105469 C 1.117188 28.234375 1.113281 28.363281 1.15625 28.492188 C 1.332031 29.03125 2.058594 29.03125 2.296875 29.03125 L 8.292969 29.03125 C 8.789062 29.039062 9.277344 28.996094 9.761719 28.910156 C 10.246094 28.824219 10.722656 28.691406 11.183594 28.515625 C 11.644531 28.339844 12.082031 28.121094 12.503906 27.859375 C 12.921875 27.601562 13.316406 27.304688 13.679688 26.96875 C 14.042969 26.632812 14.375 26.269531 14.671875 25.871094 C 14.96875 25.472656 15.222656 25.050781 15.441406 24.605469 C 15.660156 24.160156 15.832031 23.695312 15.964844 23.21875 C 16.09375 22.738281 16.179688 22.25 16.21875 21.757812 C 16.621094 16.910156 12.109375 12.726562 7.339844 13.539062 Z M 13.019531 24.90625 C 12.617188 26.351562 9.164062 24 8.464844 23.476562 C 7.5 24.347656 6.398438 24.992188 5.167969 25.40625 C 5.003906 25.402344 4.859375 25.347656 4.734375 25.242188 C 4.609375 25.136719 4.53125 25 4.496094 24.839844 C 4.464844 24.675781 4.488281 24.523438 4.5625 24.375 C 4.640625 24.230469 4.753906 24.121094 4.902344 24.054688 C 5.804688 23.675781 6.628906 23.171875 7.386719 22.546875 C 6.792969 21.957031 6.273438 21.3125 5.824219 20.605469 C 5.71875 20.441406 5.6875 20.265625 5.730469 20.078125 C 5.769531 19.886719 5.871094 19.738281 6.03125 19.632812 C 6.195312 19.527344 6.371094 19.496094 6.558594 19.539062 C 6.746094 19.582031 6.890625 19.683594 6.996094 19.84375 C 7.398438 20.484375 7.871094 21.066406 8.414062 21.597656 C 9.152344 20.800781 9.75 19.90625 10.203125 18.914062 L 4.644531 18.914062 C 4.457031 18.910156 4.292969 18.839844 4.160156 18.703125 C 4.027344 18.566406 3.960938 18.402344 3.960938 18.210938 C 3.960938 18.019531 4.027344 17.855469 4.160156 17.71875 C 4.292969 17.582031 4.457031 17.511719 4.644531 17.507812 L 7.773438 17.507812 L 7.773438 16.785156 C 7.777344 16.59375 7.847656 16.429688 7.984375 16.296875 C 8.121094 16.164062 8.28125 16.097656 8.472656 16.097656 C 8.660156 16.097656 8.824219 16.164062 8.960938 16.296875 C 9.09375 16.429688 9.164062 16.59375 9.167969 16.785156 L 9.167969 17.507812 L 12.296875 17.507812 C 12.488281 17.511719 12.652344 17.582031 12.785156 17.71875 C 12.921875 17.855469 12.988281 18.019531 12.988281 18.210938 C 12.988281 18.402344 12.921875 18.570312 12.785156 18.707031 C 12.652344 18.84375 12.488281 18.910156 12.296875 18.914062 L 11.703125 18.914062 C 11.179688 20.246094 10.441406 21.4375 9.488281 22.496094 C 10.417969 23.1875 11.4375 23.703125 12.542969 24.035156 C 12.730469 24.089844 12.867188 24.199219 12.960938 24.371094 C 13.054688 24.539062 13.070312 24.71875 13.019531 24.90625 Z M 13.019531 24.90625 " fill-opacity="1" fill-rule="nonzero"/></g></svg>