<svg xmlns="http://www.w3.org/2000/svg" xmlns:xlink="http://www.w3.org/1999/xlink" width="40" zoomAndPan="magnify" viewBox="0 0 30 30.000001" height="40" preserveAspectRatio="xMidYMid meet" version="1.0"><defs><clipPath id="803cd7ae8a"><path d="M 3.386719 0 L 27.339844 0 L 27.339844 29.03125 L 3.386719 29.03125 Z M 3.386719 0 " clip-rule="nonzero"/></clipPath></defs><g clip-path="url(#803cd7ae8a)"><path fill="#545454" d="M 27.394531 21.441406 L 27.394531 24.507812 C 27.394531 27 25.367188 29.027344 22.871094 29.027344 L 7.910156 29.027344 C 5.417969 29.027344 3.386719 27 3.386719 24.507812 L 3.386719 21.441406 C 3.386719 17.832031 5.21875 14.546875 8.28125 12.648438 L 9.332031 14.339844 C 6.855469 15.875 5.378906 18.527344 5.378906 21.441406 L 5.378906 24.507812 C 5.378906 25.902344 6.515625 27.035156 7.910156 27.035156 L 22.871094 27.035156 C 24.265625 27.035156 25.402344 25.902344 25.402344 24.507812 L 25.402344 21.441406 C 25.402344 18.535156 23.925781 15.878906 21.453125 14.339844 L 22.507812 12.648438 C 25.566406 14.554688 27.394531 17.839844 27.394531 21.441406 Z M 8.386719 7.003906 C 8.386719 3.140625 11.527344 0 15.390625 0 C 19.253906 0 22.398438 3.140625 22.398438 7.003906 C 22.398438 10.867188 19.253906 14.011719 15.390625 14.011719 C 11.527344 14.011719 8.386719 10.867188 8.386719 7.003906 Z M 10.378906 7.003906 C 10.378906 9.769531 12.628906 12.019531 15.390625 12.019531 C 18.15625 12.019531 20.40625 9.769531 20.40625 7.003906 C 20.40625 4.242188 18.15625 1.992188 15.390625 1.992188 C 12.625 1.992188 10.378906 4.242188 10.378906 7.003906 Z M 10.378906 7.003906 " fill-opacity="1" fill-rule="nonzero"/></g></svg>