<svg xmlns="http://www.w3.org/2000/svg" xmlns:xlink="http://www.w3.org/1999/xlink" width="40" zoomAndPan="magnify" viewBox="0 0 30 30.000001" height="40" preserveAspectRatio="xMidYMid meet" version="1.0"><defs><clipPath id="dcd5ce99bd"><path d="M 0.484375 12 L 16 12 L 16 17 L 0.484375 17 Z M 0.484375 12 " clip-rule="nonzero"/></clipPath><clipPath id="4f6c8bbfd9"><path d="M 0.484375 20 L 29.515625 20 L 29.515625 25.289062 L 0.484375 25.289062 Z M 0.484375 20 " clip-rule="nonzero"/></clipPath><clipPath id="d738797d06"><path d="M 0.484375 3.515625 L 29.515625 3.515625 L 29.515625 9 L 0.484375 9 Z M 0.484375 3.515625 " clip-rule="nonzero"/></clipPath></defs><g clip-path="url(#dcd5ce99bd)"><path fill="#545454" d="M 2.824219 16.84375 L 13.328125 16.84375 C 14.613281 16.84375 15.65625 15.800781 15.65625 14.515625 C 15.65625 13.226562 14.613281 12.1875 13.328125 12.1875 L 2.824219 12.1875 C 1.539062 12.1875 0.496094 13.226562 0.496094 14.515625 C 0.496094 15.800781 1.539062 16.84375 2.824219 16.84375 Z M 2.824219 16.84375 " fill-opacity="1" fill-rule="nonzero"/></g><g clip-path="url(#4f6c8bbfd9)"><path fill="#545454" d="M 27.167969 20.859375 L 2.824219 20.859375 C 1.539062 20.859375 0.496094 21.902344 0.496094 23.1875 C 0.496094 24.472656 1.539062 25.515625 2.824219 25.515625 L 27.167969 25.515625 C 28.457031 25.515625 29.496094 24.472656 29.496094 23.1875 C 29.496094 21.902344 28.457031 20.859375 27.167969 20.859375 Z M 27.167969 20.859375 " fill-opacity="1" fill-rule="nonzero"/></g><g clip-path="url(#d738797d06)"><path fill="#545454" d="M 27.167969 3.515625 L 2.824219 3.515625 C 1.539062 3.515625 0.496094 4.558594 0.496094 5.84375 C 0.496094 7.128906 1.539062 8.171875 2.824219 8.171875 L 27.167969 8.171875 C 28.457031 8.171875 29.496094 7.128906 29.496094 5.84375 C 29.496094 4.558594 28.457031 3.515625 27.167969 3.515625 Z M 27.167969 3.515625 " fill-opacity="1" fill-rule="nonzero"/></g></svg>